<svg width="958" height="1024" viewBox="0 0 958 1024" fill="none" xmlns="http://www.w3.org/2000/svg">
<rect width="958" height="1024" fill="#F3FFF2"/>
<mask id="mask0_257087_979" style="mask-type:luminance" maskUnits="userSpaceOnUse" x="229" y="305" width="500" height="417">
<path fill-rule="evenodd" clip-rule="evenodd" d="M401.704 430.866C401.704 430.866 454.881 423.538 461.492 394.806C468.104 366.075 516.698 279.504 623.15 312.699C750.761 352.499 674.085 462.164 658.585 479.88C643.085 497.595 635.332 565.575 696.232 587.125C757.132 608.675 740.497 731.364 583.556 721.429C426.616 711.493 444.881 608.752 355.758 608.164C266.635 607.577 202.958 520.255 239.499 448.694C276.04 377.132 385.099 439.298 401.704 430.866Z" fill="white"/>
</mask>
<g mask="url(#mask0_257087_979)">
<path d="M401.704 430.866C401.704 430.866 454.881 423.538 461.492 394.806C468.104 366.075 516.698 279.504 623.15 312.699C750.761 352.499 674.085 462.164 658.585 479.88C643.085 497.595 635.332 565.575 696.232 587.125C757.132 608.675 740.497 731.364 583.556 721.429C426.616 711.493 444.881 608.752 355.758 608.164C266.635 607.577 202.958 520.255 239.499 448.694C276.04 377.132 385.099 439.298 401.704 430.866Z" fill="#42CF96"/>
<g opacity="0.37">
<path d="M690.129 637.519C691.343 636.725 692.972 637.065 693.768 638.277C694.564 639.49 694.225 641.116 693.011 641.91L682.149 649.014C680.935 649.808 679.306 649.468 678.51 648.256C677.714 647.043 678.053 645.417 679.267 644.623L690.129 637.519Z" fill="white"/>
<path d="M653.846 668.39C653.627 666.954 654.614 665.614 656.05 665.396C657.485 665.178 658.826 666.166 659.045 667.601L660.994 680.405C661.212 681.84 660.226 683.181 658.79 683.399C657.354 683.616 656.013 682.629 655.795 681.194L653.846 668.39Z" fill="white"/>
<path d="M674.985 597.247C675.887 596.11 677.541 595.919 678.679 596.819C679.817 597.719 680.009 599.37 679.106 600.507L671.046 610.663C670.143 611.8 668.489 611.991 667.351 611.091C666.213 610.191 666.022 608.539 666.924 607.403L674.985 597.247Z" fill="white"/>
<path d="M720.616 648.016C720.397 646.58 721.384 645.24 722.82 645.022C724.255 644.804 725.596 645.792 725.815 647.227L727.764 660.031C727.982 661.466 726.996 662.807 725.56 663.025C724.124 663.242 722.783 662.255 722.565 660.819L720.616 648.016Z" fill="white"/>
<path d="M657.239 711.878C658.219 710.807 659.882 710.732 660.954 711.71C662.026 712.687 662.101 714.348 661.122 715.418L652.367 724.986C651.387 726.056 649.724 726.132 648.652 725.154C647.58 724.176 647.504 722.516 648.484 721.446L657.239 711.878Z" fill="white"/>
<path d="M708.317 690.842C708.581 689.415 709.953 688.471 711.381 688.735C712.809 688.998 713.752 690.369 713.488 691.797L711.128 704.532C710.864 705.96 709.491 706.903 708.064 706.64C706.636 706.376 705.692 705.005 705.957 703.577L708.317 690.842Z" fill="white"/>
<path d="M613.887 690.837C614.151 689.409 615.523 688.465 616.951 688.729C618.379 688.993 619.322 690.364 619.058 691.792L616.698 704.527C616.433 705.954 615.061 706.898 613.633 706.634C612.205 706.371 611.262 704.999 611.527 703.572L613.887 690.837Z" fill="white"/>
<path d="M638.021 620.565C637.06 619.478 637.163 617.819 638.252 616.86C639.341 615.901 641.002 616.004 641.964 617.091L650.555 626.805C651.516 627.892 651.413 629.551 650.324 630.51C649.236 631.47 647.574 631.366 646.613 630.279L638.021 620.565Z" fill="white"/>
<path d="M352.693 538.835C353.912 538.038 355.548 538.379 356.347 539.597C357.145 540.815 356.805 542.448 355.586 543.245L344.677 550.374C343.458 551.171 341.823 550.83 341.024 549.612C340.225 548.394 340.566 546.761 341.785 545.965L352.693 538.835Z" fill="white"/>
<path d="M317.008 568.8C316.79 567.364 317.777 566.024 319.212 565.806C320.648 565.589 321.989 566.576 322.208 568.011L324.157 580.815C324.375 582.251 323.388 583.591 321.953 583.809C320.517 584.026 319.176 583.039 318.957 581.604L317.008 568.8Z" fill="white"/>
<path d="M338.125 497.686C339.027 496.549 340.681 496.357 341.819 497.258C342.957 498.158 343.149 499.809 342.247 500.946L334.186 511.102C333.284 512.238 331.63 512.43 330.491 511.53C329.353 510.63 329.162 508.978 330.064 507.842L338.125 497.686Z" fill="white"/>
<path d="M383.767 548.427C383.548 546.991 384.535 545.651 385.971 545.433C387.406 545.216 388.747 546.203 388.966 547.638L390.915 560.442C391.133 561.878 390.147 563.218 388.711 563.436C387.275 563.653 385.934 562.666 385.716 561.231L383.767 548.427Z" fill="white"/>
<path d="M320.405 612.301C321.385 611.231 323.048 611.155 324.12 612.133C325.192 613.111 325.267 614.771 324.288 615.842L315.533 625.409C314.553 626.48 312.89 626.555 311.818 625.577C310.746 624.6 310.67 622.939 311.65 621.869L320.405 612.301Z" fill="white"/>
<path d="M371.482 591.249C371.747 589.821 373.119 588.878 374.547 589.141C375.975 589.405 376.918 590.776 376.653 592.204L374.294 604.939C374.029 606.366 372.657 607.31 371.229 607.046C369.801 606.783 368.858 605.412 369.123 603.984L371.482 591.249Z" fill="white"/>
<path d="M277.058 591.244C277.323 589.816 278.695 588.872 280.123 589.136C281.551 589.4 282.494 590.771 282.229 592.199L279.869 604.933C279.605 606.361 278.233 607.305 276.805 607.041C275.377 606.777 274.434 605.406 274.698 603.978L277.058 591.244Z" fill="white"/>
<path d="M301.18 520.999C300.219 519.912 300.322 518.253 301.411 517.294C302.499 516.334 304.161 516.438 305.122 517.525L313.714 527.239C314.675 528.326 314.572 529.985 313.483 530.944C312.395 531.904 310.733 531.8 309.771 530.713L301.18 520.999Z" fill="white"/>
<path d="M282.914 419.908C284.128 419.114 285.757 419.453 286.553 420.666C287.349 421.879 287.01 423.505 285.796 424.299L274.934 431.403C273.72 432.197 272.091 431.857 271.295 430.645C270.499 429.432 270.838 427.805 272.052 427.012L282.914 419.908Z" fill="white"/>
<path d="M246.635 450.962C246.417 449.525 247.406 448.183 248.843 447.966C250.281 447.748 251.623 448.737 251.842 450.175L253.788 462.996C254.006 464.433 253.017 465.775 251.579 465.993C250.142 466.21 248.8 465.221 248.581 463.783L246.635 450.962Z" fill="white"/>
<path d="M267.747 379.645C268.649 378.508 270.303 378.316 271.441 379.216C272.58 380.117 272.771 381.768 271.869 382.905L263.808 393.061C262.906 394.197 261.252 394.389 260.113 393.489C258.975 392.588 258.784 390.937 259.686 389.801L267.747 379.645Z" fill="white"/>
<path d="M313.494 430.576C313.276 429.138 314.264 427.797 315.702 427.579C317.139 427.362 318.482 428.351 318.7 429.788L320.646 442.609C320.864 444.047 319.876 445.389 318.438 445.606C317 445.824 315.658 444.834 315.44 443.397L313.494 430.576Z" fill="white"/>
<path d="M250.037 494.257C251.016 493.186 252.68 493.111 253.752 494.089C254.824 495.066 254.899 496.727 253.92 497.797L245.165 507.365C244.185 508.436 242.522 508.511 241.45 507.533C240.377 506.556 240.302 504.895 241.282 503.825L250.037 494.257Z" fill="white"/>
<path d="M301.123 473.208C301.388 471.78 302.76 470.837 304.188 471.1C305.616 471.364 306.559 472.735 306.295 474.163L303.935 486.898C303.67 488.325 302.298 489.269 300.87 489.005C299.442 488.742 298.499 487.371 298.764 485.943L301.123 473.208Z" fill="white"/>
<path d="M230.813 402.963C229.852 401.876 229.955 400.217 231.043 399.258C232.132 398.299 233.794 398.402 234.755 399.489L243.346 409.203C244.308 410.29 244.205 411.949 243.116 412.908C242.027 413.868 240.366 413.764 239.404 412.677L230.813 402.963Z" fill="white"/>
<path d="M282.569 565.956C284.018 565.981 285.172 567.177 285.147 568.626C285.122 570.076 283.926 571.23 282.477 571.205L269.487 570.979C268.038 570.953 266.883 569.758 266.909 568.309C266.934 566.859 268.13 565.705 269.579 565.73L282.569 565.956Z" fill="white"/>
<path d="M235.191 571.09C235.819 569.781 237.39 569.228 238.7 569.854C240.009 570.48 240.562 572.048 239.934 573.357L234.329 585.04C233.701 586.349 232.13 586.903 230.821 586.276C229.511 585.65 228.958 584.082 229.586 582.773L235.191 571.09Z" fill="white"/>
<path d="M292.701 524.123C294.085 523.691 295.558 524.462 295.992 525.845C296.426 527.229 295.655 528.701 294.271 529.133L281.874 533.004C280.49 533.436 279.016 532.665 278.583 531.282C278.149 529.898 278.92 528.426 280.304 527.994L292.701 524.123Z" fill="white"/>
<path d="M301.866 591.731C302.494 590.422 304.065 589.868 305.375 590.494C306.685 591.12 307.237 592.689 306.609 593.998L301.004 605.681C300.377 606.99 298.806 607.543 297.496 606.917C296.186 606.291 295.634 604.722 296.262 603.413L301.866 591.731Z" fill="white"/>
<path d="M267.582 620.24C268.604 619.21 270.269 619.202 271.301 620.222C272.333 621.241 272.341 622.903 271.32 623.934L262.186 633.143C261.165 634.174 259.5 634.182 258.468 633.162C257.436 632.142 257.427 630.481 258.449 629.45L267.582 620.24Z" fill="white"/>
<path d="M249.988 522.126C249.799 520.689 250.811 519.371 252.249 519.182C253.687 518.994 255.006 520.006 255.195 521.444L256.881 534.265C257.07 535.703 256.058 537.021 254.62 537.209C253.183 537.398 251.864 536.385 251.675 534.947L249.988 522.126Z" fill="white"/>
<path d="M481.965 473.163C483.179 472.369 484.808 472.709 485.604 473.921C486.4 475.134 486.061 476.76 484.847 477.554L473.985 484.658C472.771 485.452 471.142 485.112 470.346 483.9C469.55 482.687 469.889 481.061 471.103 480.267L481.965 473.163Z" fill="white"/>
<path d="M445.692 504.02C445.474 502.584 446.46 501.244 447.896 501.026C449.332 500.808 450.673 501.796 450.891 503.231L452.84 516.035C453.059 517.47 452.072 518.811 450.636 519.028C449.201 519.246 447.86 518.259 447.641 516.823L445.692 504.02Z" fill="white"/>
<path d="M466.811 432.89C467.713 431.753 469.368 431.561 470.506 432.462C471.644 433.362 471.835 435.013 470.933 436.15L462.872 446.306C461.97 447.442 460.316 447.634 459.178 446.734C458.04 445.834 457.848 444.182 458.75 443.046L466.811 432.89Z" fill="white"/>
<path d="M512.456 483.647C512.238 482.211 513.224 480.871 514.66 480.653C516.096 480.435 517.437 481.423 517.655 482.858L519.604 495.662C519.823 497.097 518.836 498.438 517.4 498.655C515.965 498.873 514.624 497.886 514.405 496.45L512.456 483.647Z" fill="white"/>
<path d="M449.09 547.516C450.07 546.446 451.733 546.37 452.805 547.348C453.877 548.326 453.952 549.986 452.973 551.057L444.218 560.624C443.238 561.695 441.575 561.77 440.503 560.792C439.431 559.815 439.356 558.154 440.335 557.084L449.09 547.516Z" fill="white"/>
<path d="M500.169 526.47C500.434 525.042 501.806 524.099 503.234 524.362C504.662 524.626 505.605 525.997 505.34 527.425L502.981 540.16C502.716 541.588 501.344 542.531 499.916 542.268C498.488 542.004 497.545 540.633 497.81 539.205L500.169 526.47Z" fill="white"/>
<path d="M405.739 526.465C406.003 525.037 407.375 524.093 408.803 524.357C410.231 524.621 411.174 525.992 410.91 527.42L408.55 540.154C408.285 541.582 406.913 542.526 405.485 542.262C404.057 541.999 403.114 540.627 403.379 539.2L405.739 526.465Z" fill="white"/>
<path d="M429.862 456.209C428.901 455.122 429.004 453.463 430.093 452.503C431.181 451.544 432.843 451.647 433.804 452.734L442.396 462.448C443.357 463.535 443.254 465.194 442.165 466.154C441.077 467.113 439.415 467.01 438.454 465.923L429.862 456.209Z" fill="white"/>
<path d="M543.313 694.326C544.215 693.19 545.869 692.998 547.007 693.898C548.145 694.798 548.337 696.45 547.435 697.586L539.374 707.742C538.472 708.879 536.818 709.071 535.679 708.17C534.541 707.27 534.35 705.619 535.252 704.482L543.313 694.326Z" fill="white"/>
<path d="M506.345 717.638C505.384 716.552 505.487 714.893 506.576 713.933C507.664 712.974 509.326 713.077 510.287 714.164L518.879 723.878C519.84 724.965 519.737 726.624 518.648 727.584C517.56 728.543 515.898 728.44 514.936 727.353L506.345 717.638Z" fill="white"/>
<path d="M678.526 509.493C679.861 510.058 680.483 511.597 679.917 512.93C679.351 514.264 677.81 514.887 676.475 514.323L664.526 509.266C663.191 508.701 662.569 507.162 663.135 505.829C663.701 504.495 665.242 503.872 666.577 504.436L678.526 509.493Z" fill="white"/>
<path d="M632.079 496.377C633.152 495.4 634.814 495.476 635.793 496.547C636.772 497.618 636.696 499.278 635.624 500.255L626.033 508.991C624.961 509.968 623.298 509.892 622.319 508.821C621.34 507.75 621.416 506.09 622.488 505.113L632.079 496.377Z" fill="white"/>
<path d="M703.01 474.387C704.455 474.505 705.531 475.771 705.413 477.216C705.295 478.661 704.028 479.737 702.583 479.619L689.635 478.566C688.19 478.448 687.114 477.181 687.232 475.737C687.35 474.292 688.617 473.216 690.062 473.333L703.01 474.387Z" fill="white"/>
<path d="M686.135 540.479C687.207 539.502 688.87 539.578 689.849 540.649C690.828 541.72 690.752 543.38 689.679 544.357L680.089 553.093C679.016 554.07 677.353 553.994 676.374 552.923C675.396 551.852 675.472 550.192 676.544 549.215L686.135 540.479Z" fill="white"/>
<path d="M597.727 523.37C599.16 523.588 600.145 524.927 599.926 526.36C599.707 527.793 598.368 528.778 596.935 528.559L584.092 526.605C582.659 526.386 581.674 525.048 581.893 523.615C582.112 522.182 583.451 521.197 584.885 521.415L597.727 523.37Z" fill="white"/>
<path d="M643.636 554.083C644.969 553.511 646.514 554.127 647.087 555.459C647.661 556.791 647.045 558.334 645.713 558.906L633.78 564.026C632.447 564.598 630.902 563.981 630.329 562.65C629.755 561.318 630.371 559.775 631.703 559.203L643.636 554.083Z" fill="white"/>
<path d="M591.189 475.69C592.521 475.118 594.066 475.734 594.64 477.066C595.213 478.398 594.598 479.941 593.266 480.513L581.333 485.633C580 486.205 578.455 485.589 577.881 484.257C577.308 482.925 577.923 481.382 579.256 480.81L591.189 475.69Z" fill="white"/>
<path d="M663.111 456.669C663.483 455.265 664.923 454.428 666.327 454.799C667.73 455.169 668.567 456.608 668.195 458.011L664.876 470.532C664.504 471.935 663.065 472.773 661.661 472.402C660.257 472.031 659.42 470.593 659.792 469.189L663.111 456.669Z" fill="white"/>
<path d="M658.003 380.539C659.337 381.106 659.959 382.646 659.391 383.98C658.823 385.314 657.28 385.937 655.945 385.37L643.992 380.298C642.657 379.731 642.035 378.191 642.604 376.857C643.172 375.523 644.714 374.9 646.049 375.467L658.003 380.539Z" fill="white"/>
<path d="M612.155 367.543C613.228 366.566 614.891 366.642 615.869 367.713C616.848 368.784 616.772 370.444 615.7 371.421L606.109 380.157C605.037 381.134 603.374 381.058 602.395 379.987C601.416 378.916 601.492 377.256 602.565 376.279L612.155 367.543Z" fill="white"/>
<path d="M683.085 345.56C684.53 345.678 685.606 346.944 685.488 348.389C685.37 349.834 684.103 350.91 682.658 350.792L669.709 349.739C668.264 349.621 667.189 348.355 667.307 346.91C667.425 345.465 668.692 344.389 670.137 344.506L683.085 345.56Z" fill="white"/>
<path d="M666.204 411.651C667.277 410.674 668.94 410.75 669.919 411.821C670.898 412.892 670.822 414.552 669.749 415.529L660.159 424.265C659.086 425.242 657.423 425.166 656.444 424.095C655.465 423.024 655.541 421.364 656.614 420.387L666.204 411.651Z" fill="white"/>
<path d="M577.803 394.534C579.236 394.752 580.22 396.091 580.002 397.524C579.783 398.957 578.443 399.942 577.01 399.724L564.168 397.769C562.734 397.55 561.75 396.212 561.969 394.779C562.188 393.346 563.527 392.361 564.96 392.579L577.803 394.534Z" fill="white"/>
<path d="M623.711 425.245C625.044 424.673 626.589 425.289 627.162 426.621C627.736 427.952 627.121 429.496 625.788 430.067L613.855 435.188C612.522 435.759 610.977 435.143 610.404 433.811C609.83 432.48 610.446 430.937 611.778 430.365L623.711 425.245Z" fill="white"/>
<path d="M571.264 346.852C572.597 346.28 574.142 346.896 574.715 348.228C575.289 349.56 574.673 351.103 573.341 351.675L561.408 356.795C560.075 357.367 558.53 356.751 557.957 355.419C557.383 354.087 557.999 352.544 559.331 351.972L571.264 346.852Z" fill="white"/>
<path d="M644.409 329.651C644.787 328.242 646.235 327.406 647.644 327.783C649.052 328.16 649.888 329.607 649.51 331.016L646.136 343.579C645.758 344.987 644.31 345.823 642.901 345.446C641.492 345.069 640.657 343.622 641.035 342.214L644.409 329.651Z" fill="white"/>
<path d="M442.282 425.473C442.529 426.91 441.564 428.275 440.126 428.522C438.689 428.768 437.323 427.803 437.076 426.365L434.87 413.544C434.623 412.107 435.588 410.741 437.025 410.495C438.463 410.249 439.829 411.214 440.076 412.652L442.282 425.473Z" fill="white"/>
<path d="M429.079 380.995C430.481 381.361 431.32 382.795 430.952 384.198C430.584 385.6 429.148 386.44 427.746 386.073L415.18 382.786C413.777 382.42 412.938 380.986 413.306 379.583C413.674 378.181 415.11 377.342 416.512 377.708L429.079 380.995Z" fill="white"/>
<path d="M486.128 428.472C486.817 429.75 486.338 431.343 485.059 432.03C483.781 432.717 482.186 432.237 481.497 430.96L475.349 419.551C474.66 418.274 475.138 416.681 476.417 415.994C477.696 415.307 479.291 415.786 479.98 417.064L486.128 428.472Z" fill="white"/>
<path d="M421.386 450.268C422.789 450.635 423.627 452.069 423.259 453.471C422.891 454.874 421.456 455.713 420.053 455.346L407.487 452.06C406.085 451.693 405.246 450.259 405.614 448.857C405.982 447.454 407.417 446.615 408.82 446.982L421.386 450.268Z" fill="white"/>
<path d="M387.695 366.882C388.293 368.205 387.704 369.76 386.38 370.356C385.057 370.952 383.499 370.363 382.901 369.04L377.568 357.231C376.97 355.908 377.559 354.352 378.883 353.757C380.206 353.161 381.764 353.75 382.362 355.073L387.695 366.882Z" fill="white"/>
<path d="M386.404 421.486C387.609 422.297 387.926 423.93 387.112 425.134C386.299 426.337 384.664 426.655 383.459 425.843L372.681 418.584C371.476 417.773 371.159 416.14 371.972 414.937C372.786 413.733 374.421 413.416 375.626 414.227L386.404 421.486Z" fill="white"/>
<path d="M424.24 335.488C425.446 336.294 425.768 337.924 424.961 339.128C424.153 340.333 422.52 340.656 421.314 339.85L410.523 332.639C409.317 331.833 408.995 330.203 409.803 328.999C410.61 327.794 412.243 327.471 413.449 328.277L424.24 335.488Z" fill="white"/>
<path d="M479.286 385.391C480.664 384.941 482.147 385.694 482.599 387.071C483.05 388.449 482.299 389.931 480.92 390.381L468.574 394.412C467.196 394.861 465.713 394.109 465.261 392.732C464.81 391.354 465.561 389.872 466.939 389.422L479.286 385.391Z" fill="white"/>
<path d="M581.839 313.092C581.185 314.389 579.604 314.911 578.307 314.259C577.01 313.607 576.489 312.027 577.142 310.731L582.979 299.162C583.633 297.866 585.214 297.344 586.511 297.996C587.808 298.648 588.33 300.227 587.676 301.523L581.839 313.092Z" fill="white"/>
<path d="M615.167 340.389C614.956 341.826 613.62 342.82 612.183 342.609C610.746 342.399 609.753 341.063 609.964 339.627L611.848 326.814C612.059 325.377 613.395 324.383 614.832 324.593C616.269 324.804 617.262 326.139 617.051 327.576L615.167 340.389Z" fill="white"/>
<path d="M550.2 319.316C551.108 320.448 550.925 322.1 549.792 323.006C548.658 323.913 547.003 323.73 546.095 322.598L537.981 312.484C537.073 311.352 537.256 309.7 538.389 308.794C539.523 307.887 541.178 308.071 542.086 309.202L550.2 319.316Z" fill="white"/>
<path d="M635.432 301.741C636.807 302.201 637.548 303.688 637.087 305.062C636.625 306.437 635.137 307.178 633.762 306.719L621.445 302.6C620.07 302.14 619.329 300.653 619.79 299.279C620.252 297.904 621.74 297.162 623.115 297.622L635.432 301.741Z" fill="white"/>
<path d="M598.35 614.938C599.791 615.096 600.831 616.392 600.672 617.833C600.514 619.274 599.217 620.314 597.776 620.157L584.862 618.743C583.421 618.585 582.382 617.289 582.54 615.848C582.698 614.407 583.995 613.367 585.436 613.524L598.35 614.938Z" fill="white"/>
<path d="M550.76 615.747C551.505 614.501 553.12 614.094 554.367 614.837C555.614 615.58 556.021 617.192 555.276 618.438L548.623 629.561C547.877 630.807 546.263 631.214 545.016 630.471C543.769 629.728 543.362 628.116 544.107 626.87L550.76 615.747Z" fill="white"/>
<path d="M612.309 574.259C613.727 573.955 615.123 574.857 615.428 576.275C615.733 577.692 614.831 579.087 613.413 579.391L600.712 582.114C599.295 582.418 597.898 581.515 597.594 580.098C597.289 578.681 598.191 577.285 599.608 576.981L612.309 574.259Z" fill="white"/>
<path d="M615.263 642.393C616.008 641.147 617.623 640.74 618.87 641.483C620.117 642.226 620.524 643.838 619.778 645.084L613.125 656.207C612.38 657.453 610.766 657.86 609.519 657.117C608.272 656.374 607.865 654.762 608.61 653.516L615.263 642.393Z" fill="white"/>
<path d="M525.665 651.508C527.101 651.304 528.43 652.302 528.635 653.737C528.84 655.172 527.843 656.501 526.407 656.705L513.546 658.534C512.111 658.739 510.781 657.741 510.576 656.306C510.372 654.87 511.369 653.541 512.804 653.337L525.665 651.508Z" fill="white"/>
<path d="M578.508 667.663C579.62 666.731 581.278 666.875 582.212 667.984C583.146 669.094 583.003 670.75 581.891 671.682L571.951 680.02C570.839 680.952 569.181 680.808 568.247 679.699C567.313 678.589 567.456 676.933 568.568 676.001L578.508 667.663Z" fill="white"/>
<path d="M505.623 607.717C506.734 606.785 508.393 606.929 509.327 608.039C510.261 609.149 510.117 610.804 509.006 611.736L499.066 620.074C497.954 621.007 496.296 620.863 495.362 619.753C494.427 618.643 494.571 616.988 495.682 616.055L505.623 607.717Z" fill="white"/>
<path d="M568.936 568.832C568.886 567.381 570.023 566.164 571.474 566.115C572.925 566.065 574.142 567.202 574.192 568.653L574.633 581.596C574.683 583.047 573.546 584.264 572.095 584.313C570.643 584.363 569.427 583.226 569.377 581.775L568.936 568.832Z" fill="white"/>
<path d="M461 632.698C462.441 632.856 463.481 634.152 463.323 635.593C463.164 637.034 461.868 638.074 460.427 637.916L447.513 636.502C446.072 636.345 445.032 635.048 445.19 633.607C445.349 632.167 446.645 631.126 448.086 631.284L461 632.698Z" fill="white"/>
<path d="M413.389 633.511C414.134 632.265 415.749 631.858 416.995 632.601C418.242 633.344 418.649 634.956 417.904 636.202L411.251 647.325C410.506 648.571 408.891 648.978 407.644 648.235C406.397 647.492 405.991 645.88 406.736 644.634L413.389 633.511Z" fill="white"/>
<path d="M474.948 592.012C476.366 591.708 477.762 592.611 478.067 594.028C478.372 595.446 477.47 596.841 476.052 597.145L463.351 599.868C461.933 600.172 460.537 599.269 460.232 597.852C459.927 596.434 460.829 595.039 462.247 594.735L474.948 592.012Z" fill="white"/>
<path d="M477.898 660.157C478.643 658.911 480.257 658.504 481.504 659.247C482.751 659.99 483.158 661.602 482.413 662.848L475.76 673.971C475.015 675.217 473.4 675.624 472.153 674.881C470.906 674.138 470.499 672.526 471.245 671.28L477.898 660.157Z" fill="white"/>
<path d="M388.295 669.266C389.73 669.061 391.06 670.059 391.264 671.495C391.469 672.93 390.472 674.259 389.037 674.463L376.175 676.292C374.74 676.496 373.411 675.498 373.206 674.063C373.001 672.628 373.998 671.299 375.434 671.095L388.295 669.266Z" fill="white"/>
<path d="M441.138 685.421C442.249 684.489 443.908 684.633 444.842 685.742C445.776 686.852 445.632 688.508 444.521 689.44L434.581 697.778C433.469 698.71 431.811 698.566 430.877 697.457C429.942 696.347 430.086 694.691 431.198 693.759L441.138 685.421Z" fill="white"/>
<path d="M368.257 625.486C369.368 624.554 371.026 624.698 371.961 625.807C372.895 626.917 372.751 628.573 371.64 629.505L361.699 637.843C360.588 638.775 358.93 638.631 357.995 637.522C357.061 636.412 357.205 634.756 358.316 633.824L368.257 625.486Z" fill="white"/>
<path d="M431.574 586.582C431.525 585.131 432.661 583.914 434.113 583.865C435.564 583.815 436.781 584.952 436.83 586.403L437.272 599.346C437.321 600.797 436.185 602.014 434.733 602.063C433.282 602.113 432.065 600.976 432.016 599.525L431.574 586.582Z" fill="white"/>
</g>
</g>
<path d="M372.993 696.567C372.993 696.567 360.858 676.121 354.216 685.24C347.575 694.359 358.646 709.556 342.034 707.342C325.422 705.128 319.634 710.542 318.505 720.425C332.987 721.1 375.228 720.12 375.228 720.12C375.228 720.12 377.375 697.395 372.993 696.567Z" fill="#1E9E6A" stroke="#232323" stroke-width="1.41"/>
<path d="M366.811 698.71C366.811 698.71 380.928 698.434 378.71 685.998C376.493 673.561 402.075 666.379 406.587 680.472C411.099 694.565 396.981 713.907 366.811 698.71V698.71Z" fill="#09683D" stroke="#232323" stroke-width="1.41"/>
<path d="M422.586 667.278C422.586 667.278 435.039 655.399 447.221 666.174C459.404 676.949 442.31 690.214 457.221 689.11C472.133 688.006 479.733 708.834 472.751 720.818C464.104 720.073 410.986 720.818 410.986 720.818C410.986 720.818 410.957 668.106 422.586 667.278Z" fill="#232323" stroke="#232323" stroke-width="1.41"/>
<path d="M350.063 720.12C350.063 720.12 364.734 720.12 363.905 708.452C360.028 691.87 373.316 689.11 383.281 693.255C393.246 697.401 405.493 695.358 403.434 678.611C401.375 661.864 423.522 655.293 433.022 669.715C442.522 684.136 418.71 702.369 443.898 698.487C469.086 694.606 450.822 720.801 450.822 720.801L350.063 720.12Z" fill="#21D855" stroke="#232323" stroke-width="1.41"/>
<path d="M663.567 720.801H250.57" stroke="#232323" stroke-width="1.41"/>
<path d="M396.328 694.418C396.328 694.418 386.057 648.54 366.811 635.698" stroke="#232323" stroke-width="1.41"/>
<path d="M390.209 647.484C392.661 641.872 393.571 636.853 392.24 636.273C390.909 635.693 387.841 639.773 385.389 645.385C382.936 650.997 382.027 656.016 383.358 656.596C384.689 657.175 387.756 653.096 390.209 647.484Z" fill="#21D855" stroke="#232323" stroke-width="1.41"/>
<path d="M400.32 673.764C402.772 668.152 403.681 663.133 402.35 662.553C401.019 661.974 397.952 666.053 395.499 671.665C393.047 677.277 392.138 682.297 393.469 682.876C394.8 683.456 397.867 679.376 400.32 673.764Z" fill="#21D855" stroke="#232323" stroke-width="1.41"/>
<path d="M387.38 667.869C387.481 666.423 382.602 664.907 376.483 664.483C370.364 664.059 365.323 664.888 365.222 666.334C365.122 667.78 370 669.296 376.119 669.72C382.238 670.144 387.28 669.315 387.38 667.869Z" fill="#21D855" stroke="#232323" stroke-width="1.41"/>
<path d="M367.784 647.981C372.308 647.487 375.881 646.218 375.763 645.148C375.646 644.077 371.883 643.611 367.359 644.105C362.834 644.6 359.262 645.869 359.379 646.939C359.497 648.009 363.259 648.476 367.784 647.981Z" fill="#21D855" stroke="#232323" stroke-width="1.41"/>
<path d="M377.237 633.426C378.124 628.97 377.986 625.187 376.928 624.977C375.87 624.767 374.293 628.21 373.406 632.666C372.519 637.122 372.657 640.905 373.715 641.115C374.773 641.325 376.35 637.882 377.237 633.426Z" fill="#21D855" stroke="#232323" stroke-width="1.41"/>
<path d="M369.802 637.674C370.345 636.901 368.132 634.418 364.86 632.129C361.588 629.839 358.495 628.609 357.953 629.382C357.41 630.155 359.623 632.637 362.895 634.927C366.167 637.217 369.259 638.446 369.802 637.674Z" fill="#21D855" stroke="#232323" stroke-width="1.41"/>
<path d="M382.205 348.109C403.654 345.37 420.636 339.989 420.137 336.091C419.637 332.192 401.844 331.252 380.396 333.991C358.947 336.73 341.964 342.111 342.464 346.009C342.964 349.908 360.756 350.848 382.205 348.109Z" fill="#232323" stroke="#232323" stroke-width="1.41"/>
<path d="M413.734 599.483C429.276 597.498 441.582 593.6 441.22 590.776C440.858 587.951 427.965 587.271 412.423 589.255C396.881 591.24 384.576 595.138 384.937 597.963C385.299 600.787 398.192 601.468 413.734 599.483Z" fill="#232323" stroke="#232323" stroke-width="1.41"/>
<path d="M515.051 575.904C517.909 576.562 520.65 577.319 523.286 578.147C532.615 564.777 588.409 520.608 583.221 509.897C577.409 497.877 541.492 483.996 536.927 499.95C536.927 499.95 532.497 505.27 520.527 507.689C510.051 509.803 478.174 515.464 466.045 542.962C493.704 544.06 515.051 575.904 515.051 575.904Z" fill="#3674D8"/>
<path d="M556.227 503.174C556.227 503.174 530.345 514.395 505.922 552.451" stroke="white" stroke-linecap="round"/>
<path d="M545.368 500.755C540.201 506.402 533.561 510.501 526.192 512.593C513.215 516.116 496.545 521.559 487.569 540.191" stroke="white" stroke-linecap="round"/>
<path fill-rule="evenodd" clip-rule="evenodd" d="M515.051 575.904C517.91 576.562 520.651 577.319 523.286 578.147C532.615 564.777 588.409 520.608 583.221 509.897C577.409 497.877 541.492 483.996 536.927 499.95C536.927 499.95 532.498 505.27 520.527 507.689C510.051 509.803 478.174 515.464 466.045 542.962C493.704 544.06 515.051 575.904 515.051 575.904Z" stroke="#232323"/>
<path d="M561.174 645.822C550.251 627.196 525.721 585.611 522.186 581.606C521.674 581.019 522.121 579.844 523.292 578.147C520.651 577.319 517.91 576.562 515.057 575.904C515.057 575.904 493.716 544.06 466.051 542.962C464.217 547.168 462.921 551.587 462.192 556.116C455.757 595.076 494.775 619.691 550.692 651.653C552.361 652.825 553.764 654.336 554.809 656.086L561.174 645.822Z" fill="#F97450" stroke="#232323"/>
<path d="M578.309 512.052C568.486 505.37 551.545 512.252 543.709 517.29C535.68 522.457 527.798 518.394 518.104 523.368C511.292 526.861 507.31 536.08 512.81 547.965C517.545 558.141 509.51 556.873 505.28 564.137C508.833 567.79 512.092 571.717 515.027 575.881C517.886 576.538 520.627 577.296 523.263 578.124C529.562 569.087 557.068 545.975 572.674 528.647C574.698 515.716 584.18 516.045 578.309 512.052Z" fill="#232323"/>
<path d="M568.78 503.473C539.751 514.36 523.739 543.443 515.051 575.904C521.521 577.9 547.233 586.784 558.986 605.334C559.44 604.698 559.992 604.137 560.621 603.672C599.762 574.354 617.68 531.629 617.68 531.629C618.809 513.602 610.915 486.344 568.78 503.473Z" fill="#3674D8"/>
<path d="M570.586 509.41C570.586 509.41 540.91 520.519 524.804 570.96" stroke="white" stroke-width="1.41" stroke-linecap="round"/>
<path d="M580.203 516.391C580.203 516.391 547.886 534.113 536.386 575.904" stroke="white" stroke-width="1.41" stroke-linecap="round"/>
<path d="M592.627 523.367C592.627 523.367 555.468 544.63 547.692 583.59" stroke="white" stroke-width="1.41" stroke-linecap="round"/>
<path d="M600.868 533.526C600.868 533.526 565.798 564.183 554.633 589.797" stroke="white" stroke-width="1.41" stroke-linecap="round"/>
<path d="M558.998 596.532C558.998 596.532 604.827 545.205 605.468 543.714" stroke="white" stroke-width="1.41" stroke-linecap="round"/>
<path d="M571.515 502.404C570.615 502.739 569.709 503.091 568.78 503.467C567.08 504.107 565.433 504.812 563.821 505.569C566.809 507.014 597.003 522.287 605.544 553.995C613.779 541.007 617.703 531.623 617.703 531.623C618.032 526.245 617.562 520.05 615.621 514.454C603.303 508.276 582.868 502.164 571.515 502.404Z" fill="#232323"/>
<path d="M554.985 679.626C563.291 663.878 566.403 654.758 566.403 654.758C566.403 654.758 564.368 651.27 561.174 645.821L554.827 656.085C557.821 661.059 558.621 668.745 554.985 679.626Z" fill="#7F0E0E" stroke="#232323" stroke-width="1.41"/>
<path d="M550.856 513.614C532.357 525.857 520.368 556.027 515.051 575.904C521.521 577.9 547.233 586.784 558.986 605.334C559.44 604.698 559.992 604.137 560.621 603.672C599.762 574.354 617.68 531.629 617.68 531.629C618.785 513.602 610.891 486.344 568.756 503.473" stroke="#232323" stroke-width="1.41" stroke-linecap="round"/>
<path d="M563.703 409.422C558.297 410.511 552.968 411.953 547.751 413.738C547.751 413.738 524.004 419.968 523.362 438.136C522.915 450.89 517.48 465.934 511.045 465.951C514.186 472.152 518.198 484.336 512.81 500.085C524.951 499.14 533.351 494.137 538.627 487.719C538.109 492.17 537.451 496.333 536.904 499.962C565.968 500.584 612.056 527.319 616.209 534.783C656.921 451.042 563.703 409.422 563.703 409.422Z" fill="#F9B01C"/>
<g opacity="0.6">
<path d="M587.821 442.34C587.821 442.34 581.415 450.966 587.821 455.669C594.227 460.373 594.227 433.702 587.821 442.34Z" fill="white"/>
<path d="M626.492 491.911C623.421 490.837 620.28 490.778 620.174 494.976C619.968 503.267 611.663 503.444 606.892 500.261C602.121 497.078 593.51 500.619 597.545 512.005C601.174 522.222 615.192 518.928 619.674 527.031C624.78 514.272 626.757 502.575 626.492 491.911Z" fill="white"/>
<path d="M579.28 485.652C579.28 485.652 569.327 499.421 556.968 491.295C544.609 483.168 548.904 494.876 543.78 491.295C538.657 487.713 543.686 471.33 549.662 474.671C555.639 478.012 562.445 483.168 568.792 477.049C575.139 470.931 583.639 479.228 579.28 485.652Z" fill="white"/>
<path d="M556.427 448.142C556.427 448.142 562.933 442.751 561.451 438.605C559.968 434.46 561.921 429.692 566.404 430.972C570.886 432.252 572.674 444.237 566.404 448.171C560.133 452.105 552.657 452.34 556.427 448.142Z" fill="white"/>
<path d="M583.469 513.614C584.057 510.378 583.592 507.343 582.457 508.564C580.027 511.165 578.033 503.062 572.633 503.062C570.169 503.062 568.48 504.859 567.375 506.802C572.863 508.828 578.304 511.159 583.469 513.614Z" fill="white"/>
<path d="M521.939 448.969C520.763 454.107 518.933 458.829 516.745 461.976C519.098 463.491 521.969 466.762 526.157 464.759C531.233 462.328 525.28 453.379 521.939 448.969Z" fill="white"/>
<path d="M534.616 491.776C534.28 487.131 523.345 489.78 520.939 482.968C519.763 479.545 517.41 479.392 515.222 480.273C515.878 486.962 515.063 493.714 512.833 500.056C522.251 499.339 529.416 496.157 534.616 491.776Z" fill="white"/>
<path d="M531.939 470.854C531.939 470.854 523.051 471.559 524.798 475.499C526.545 479.439 533.698 477.331 530.221 481.494C526.745 485.657 543.568 479.269 531.939 470.854Z" fill="white"/>
<path d="M591.027 492.763C591.027 492.763 596.716 488.23 601.91 491.295C607.104 494.36 610.298 486.679 604.445 482.956C598.592 479.234 580.557 491.788 591.027 492.763Z" fill="white"/>
</g>
<path d="M511.045 465.939C509.804 465.939 508.528 465.399 507.239 464.178C497.998 455.37 462.328 418.106 459.281 420.59C458.104 421.906 464.787 427.325 461.045 428.365C457.304 429.404 453.916 435.411 459.14 438.829C464.363 442.246 464.057 435.411 469.663 441.624C475.269 447.836 478.863 500.643 509.38 500.244C510.557 500.244 511.733 500.161 512.833 500.073C518.198 484.325 514.186 472.14 511.045 465.939Z" fill="#F97450"/>
<path fill-rule="evenodd" clip-rule="evenodd" d="M563.704 409.422C558.297 410.511 552.968 411.953 547.751 413.738C547.751 413.738 524.004 419.968 523.363 438.136C522.827 453.344 515.228 471.812 507.239 464.178C497.998 455.37 462.328 418.107 459.281 420.59C458.104 421.906 464.787 427.326 461.045 428.365C457.304 429.404 453.916 435.411 459.14 438.829C464.363 442.246 464.057 435.411 469.663 441.624C475.269 447.836 478.863 500.643 509.38 500.244C523.404 500.056 532.91 494.724 538.651 487.707C538.133 492.158 537.474 496.321 536.927 499.95C565.992 500.572 612.08 527.307 616.233 534.771C656.921 451.042 563.704 409.422 563.704 409.422Z" stroke="#232323" stroke-width="1.41"/>
<path d="M632.403 464.783C642.703 454.654 646.579 436.633 631.874 421.407C609.45 398.2 567.327 408.635 567.327 408.635C556.033 410.432 552.704 433.567 566.403 427.214C569.686 425.693 578.992 429.809 582.227 430.32C592.503 431.935 601.509 441.753 602.668 446.691C617.28 450.179 627.944 460.026 632.403 464.783Z" fill="#F9B01C"/>
<g opacity="0.6">
<path d="M628.709 418.465C623.768 419.962 617.038 422.88 619.344 427.214C622.874 433.843 633.88 436.022 627.856 441.671C622.562 446.644 631.927 454.154 641.05 448.758C642.697 440.103 640.462 430.285 631.874 421.406C630.87 420.373 629.813 419.391 628.709 418.465V418.465Z" fill="white"/>
<path d="M600.797 420.637C600.797 420.637 594.209 425.734 602.72 430.913C611.232 436.092 602.603 440.972 607.538 441.847C612.473 442.722 611.938 413.884 600.797 420.637Z" fill="white"/>
<path d="M572.333 407.66C570.897 411.26 570.103 415.576 574.65 415.358C582.391 414.982 583.909 408.312 587.821 415.358C590.838 420.819 599.685 412.422 598.897 406.815C590.044 405.924 581.111 406.208 572.333 407.66Z" fill="white"/>
</g>
<path d="M594.327 453.221C594.327 453.221 593.497 436.779 582.286 430.737C587.168 430.737 602.527 438.089 603.362 450.625C601.18 460.267 594.327 453.221 594.327 453.221Z" fill="#232323"/>
<path d="M540.974 437.201C540.592 436.314 541.001 435.286 541.889 434.904C542.777 434.523 543.807 434.933 544.189 435.821L563.44 480.483C563.822 481.371 563.412 482.399 562.525 482.781C561.637 483.162 560.607 482.752 560.225 481.864L540.974 437.201Z" fill="white" stroke="#232323" stroke-width="1.41" stroke-linecap="round"/>
<path d="M554.78 461.06C547.003 467.519 549.103 467.965 554.227 464.789C550.627 468.658 550.174 472.587 557.503 477.049C569.685 454.254 591.732 471.007 612.632 472.663C619.82 473.25 626.997 470.091 632.403 464.783C627.944 460.026 617.279 450.179 602.668 446.691C585.503 444.894 561.35 455.593 554.78 461.06Z" fill="#F97450"/>
<path d="M567.327 408.635C567.327 408.635 609.45 398.2 631.874 421.407C646.58 436.633 642.703 454.654 632.403 464.783C626.997 470.068 619.821 473.238 612.633 472.663C591.733 471.007 569.692 454.254 557.504 477.049C550.38 472.716 550.61 468.881 553.927 465.123C553.945 465.109 553.954 465.086 553.95 465.063C553.946 465.04 553.93 465.021 553.909 465.013C553.887 465.005 553.863 465.009 553.845 465.023C549.004 467.959 547.198 467.372 554.78 461.06C561.362 455.593 585.503 444.894 602.668 446.691C601.492 441.753 592.503 431.935 582.227 430.32" stroke="#232323" stroke-width="1.41" stroke-linecap="round"/>
<path d="M560.922 390.097C560.922 390.097 562.31 402.334 567.327 408.635C567.876 409.318 568.107 410.202 567.963 411.066C565.751 424.249 550.48 437.208 545.375 438.605C545.063 435.605 553.61 411.324 547.31 404.83C545.21 402.663 554.398 383.855 560.922 390.097Z" fill="#F97450" stroke="#232323" stroke-width="1.41"/>
<path d="M543.051 374.883C543.051 374.883 534.957 383.896 536.927 399.058C538.898 414.219 558.41 410.214 561.01 400.167C563.61 390.121 554.468 360.79 543.051 374.883Z" fill="#F97450"/>
<path d="M543.051 374.883C543.051 374.883 534.957 383.896 536.927 399.058C538.404 410.402 549.751 411.025 556.427 406.386" stroke="#232323" stroke-width="1.41" stroke-linecap="round"/>
<path d="M562.709 398.735C562.709 398.735 579.139 371.137 564.333 367.32C555.233 364.971 549.903 369.287 550.315 362.035C550.727 354.783 541.939 349.187 534.021 356.439C526.104 363.691 529.727 388.94 552.703 386.04C552.009 390.097 551.598 396.644 555.197 398.735C554.503 394.037 555.609 389.052 559.068 388.858C562.527 388.664 558.603 397.472 562.709 398.735Z" fill="#232323"/>
<path d="M533.192 445.863C533.192 445.863 542.451 466.139 538.651 487.707" stroke="#232323" stroke-width="1.41" stroke-linecap="round"/>
<path d="M533.192 445.863C533.051 451.665 548.804 489.38 514.563 493.667C514.127 495.832 513.549 497.966 512.833 500.056C524.975 499.11 533.375 494.107 538.651 487.689C542.41 466.133 533.192 445.863 533.192 445.863V445.863Z" fill="#232323"/>
<path d="M555.033 361.101C543.486 323.309 519.368 297.197 501.168 302.758C498.502 303.594 496.068 305.042 494.063 306.985C496.015 305.725 498.198 304.865 500.486 304.455C519.227 301.184 539.956 330.068 546.774 368.97C552.262 400.273 547.074 428.512 535.074 440.068C537.714 440.489 540.415 440.317 542.98 439.563C561.18 434.002 566.574 398.882 555.033 361.101Z" fill="#57B5E5"/>
<path d="M546.774 368.952C539.957 330.05 519.228 301.166 500.486 304.437C498.198 304.847 496.015 305.707 494.063 306.968C481.763 318.571 479.251 348.894 489.116 381.178C499.057 413.691 518.298 437.548 535.075 440.05C547.074 428.494 552.263 400.232 546.774 368.952Z" fill="#93D2F9"/>
<path fill-rule="evenodd" clip-rule="evenodd" d="M501.168 302.757C502.804 302.256 504.505 302.001 506.215 302C523.609 301.994 544.521 326.727 555.039 361.119C566.58 398.899 561.186 434.019 542.986 439.563C541.35 440.058 539.649 440.307 537.939 440.302C520.539 440.302 499.627 415.57 489.115 381.195C477.574 343.421 482.968 308.301 501.168 302.757ZM530.016 321.307C521.881 311.53 513.428 306.14 506.222 306.14L506.239 306.116C504.939 306.122 503.647 306.32 502.404 306.703C495.316 308.864 490.104 317.537 488.116 330.497C485.934 344.736 487.71 362.282 493.116 379.968C497.981 395.975 505.469 410.537 514.139 421.007C522.269 430.784 530.722 436.169 537.933 436.169C539.234 436.162 540.526 435.965 541.769 435.581C548.857 433.421 554.069 424.748 556.057 411.782C558.239 397.572 556.469 380.003 551.057 362.311C546.169 346.31 538.692 331.747 530.016 321.307Z" fill="white"/>
<path d="M506.215 302L506.215 301.295L506.215 301.295L506.215 302ZM501.168 302.757L501.374 303.432L501.375 303.432L501.168 302.757ZM555.039 361.119L555.713 360.913L555.713 360.913L555.039 361.119ZM542.986 439.563L543.19 440.237L543.191 440.237L542.986 439.563ZM537.939 440.302L537.941 439.597H537.939V440.302ZM489.115 381.195L488.441 381.401L488.441 381.401L489.115 381.195ZM506.222 306.14L505.658 305.716L504.81 306.845H506.222V306.14ZM530.016 321.307L530.558 320.856L530.558 320.856L530.016 321.307ZM506.239 306.116L506.803 306.54L507.656 305.404L506.236 305.411L506.239 306.116ZM502.404 306.703L502.61 307.378L502.612 307.377L502.404 306.703ZM488.116 330.497L487.419 330.39L487.419 330.39L488.116 330.497ZM493.116 379.968L493.791 379.763L493.79 379.762L493.116 379.968ZM514.139 421.007L513.596 421.457L513.597 421.458L514.139 421.007ZM537.933 436.169V436.874L537.937 436.874L537.933 436.169ZM541.769 435.581L541.563 434.907L541.561 434.908L541.769 435.581ZM556.057 411.782L555.36 411.675L555.36 411.675L556.057 411.782ZM551.057 362.311L550.383 362.517L550.383 362.517L551.057 362.311ZM506.215 301.295C504.434 301.296 502.664 301.562 500.962 302.083L501.375 303.432C502.943 302.951 504.575 302.706 506.216 302.705L506.215 301.295ZM555.713 360.913C550.432 343.643 542.534 328.775 533.748 318.209C524.987 307.675 515.23 301.292 506.215 301.295L506.216 302.705C514.595 302.702 523.991 308.683 532.664 319.111C541.311 329.509 549.128 344.203 554.364 361.325L555.713 360.913ZM543.191 440.237C552.698 437.342 558.67 426.803 560.862 412.537C563.062 398.215 561.507 379.882 555.713 360.913L554.364 361.325C560.111 380.137 561.63 398.253 559.468 412.323C557.298 426.447 551.474 436.24 542.78 438.888L543.191 440.237ZM537.937 441.007C539.716 441.013 541.487 440.753 543.19 440.237L542.781 438.888C541.212 439.363 539.581 439.602 537.941 439.597L537.937 441.007ZM488.441 381.401C493.72 398.662 501.615 413.526 510.402 424.09C519.163 434.623 528.921 441.007 537.939 441.007V439.597C529.557 439.597 520.159 433.615 511.486 423.188C502.839 412.792 495.023 398.103 489.79 380.989L488.441 381.401ZM500.963 302.083C491.456 304.978 485.484 315.517 483.292 329.783C481.092 344.103 482.647 362.436 488.441 381.401L489.79 380.989C484.043 362.181 482.524 344.065 484.686 329.997C486.856 315.873 492.68 306.08 501.374 303.432L500.963 302.083ZM506.222 306.845C513.103 306.845 521.375 312.025 529.474 321.758L530.558 320.856C522.386 311.035 513.752 305.435 506.222 305.435V306.845ZM505.676 305.693L505.658 305.716L506.785 306.563L506.803 306.54L505.676 305.693ZM502.612 307.377C503.788 307.014 505.012 306.827 506.243 306.821L506.236 305.411C504.866 305.418 503.505 305.626 502.196 306.03L502.612 307.377ZM488.813 330.604C489.798 324.186 491.575 318.872 493.952 314.914C496.329 310.956 499.28 308.393 502.61 307.378L502.199 306.029C498.44 307.175 495.241 310.029 492.743 314.188C490.246 318.346 488.423 323.848 487.419 330.39L488.813 330.604ZM493.79 379.762C488.407 362.149 486.65 344.713 488.813 330.603L487.419 330.39C485.217 344.76 487.014 362.414 492.442 380.174L493.79 379.762ZM514.682 420.558C506.083 410.174 498.634 395.699 493.791 379.763L492.441 380.173C497.328 396.251 504.855 410.901 513.596 421.457L514.682 420.558ZM537.933 435.464C531.046 435.464 522.774 430.289 514.681 420.556L513.597 421.458C521.764 431.279 530.397 436.874 537.933 436.874V435.464ZM541.561 434.908C540.385 435.27 539.161 435.458 537.93 435.464L537.937 436.874C539.306 436.867 540.668 436.659 541.976 436.255L541.561 434.908ZM555.36 411.675C554.375 418.096 552.598 423.412 550.221 427.371C547.844 431.329 544.893 433.892 541.563 434.907L541.974 436.256C545.733 435.11 548.932 432.256 551.43 428.096C553.927 423.937 555.75 418.434 556.754 411.889L555.36 411.675ZM550.383 362.517C555.772 380.136 557.522 397.595 555.36 411.675L556.754 411.889C558.956 397.549 557.165 379.871 551.731 362.105L550.383 362.517ZM529.474 321.758C538.078 332.111 545.516 346.585 550.383 362.517L551.731 362.105C546.822 346.034 539.306 331.383 530.558 320.856L529.474 321.758Z" fill="#232323"/>
<path d="M528.834 392.122C544.843 387.294 555.286 375.007 552.16 364.677C549.034 354.347 533.523 349.887 517.514 354.714C501.505 359.541 491.062 371.829 494.188 382.159C497.314 392.489 512.826 396.949 528.834 392.122Z" fill="white" stroke="#232323" stroke-width="1.41401"/>
<path d="M528.695 392.019C535.962 389.828 539.294 379.596 536.138 369.167C532.982 358.737 524.533 352.059 517.266 354.25C509.999 356.442 506.667 366.673 509.823 377.102C512.979 387.532 521.429 394.21 528.695 392.019Z" fill="#232323"/>
<path d="M379.241 334.816L383.363 334.313L415.749 598.75L411.626 599.253L379.241 334.816Z" fill="white" stroke="#232323" stroke-width="1.41" stroke-linecap="round"/>
<path d="M532.792 367.384C535.658 367.384 537.98 365.066 537.98 362.205C537.98 359.345 535.658 357.026 532.792 357.026C529.927 357.026 527.604 359.345 527.604 362.205C527.604 365.066 529.927 367.384 532.792 367.384Z" fill="white"/>
<path d="M397.422 520.742C428.383 520.742 453.481 495.688 453.481 464.783C453.481 433.877 428.383 408.823 397.422 408.823C366.462 408.823 341.364 433.877 341.364 464.783C341.364 495.688 366.462 520.742 397.422 520.742Z" fill="#93D2F9"/>
<path d="M453.116 458.459C452.145 449.903 451.257 445.452 446.975 438.605C441.757 439.475 426.481 424.307 428.739 445.863C429.751 455.388 413.128 451.089 413.545 460.355C413.934 469.058 445.486 480.232 433.628 507.484C447.925 495.422 455.238 477.025 453.116 458.459Z" fill="#1E9E6A" stroke="#232323" stroke-width="1.41"/>
<path d="M381.81 472.005C381.81 472.005 394.334 468.776 396.363 476.403C398.392 484.031 405.939 482.539 405.387 485.863C404.834 489.187 393.228 496.538 384.757 486.791C376.287 477.043 377.01 472.669 381.81 472.005Z" fill="#1E9E6A" stroke="#232323" stroke-width="1.41"/>
<path d="M403.91 416.351C403.91 416.351 391.069 412.082 385.134 418.347C379.199 424.613 391.605 424.055 390.858 426.092C390.111 428.13 383.616 444.472 393.605 441.312C403.593 438.153 417.769 422.546 403.91 416.351Z" fill="#1E9E6A" stroke="#232323" stroke-width="1.41"/>
<path d="M371.463 488.153C378.734 490.12 373.334 478.447 368.352 474.648C363.369 470.848 364.616 463.544 370.428 457.46C376.24 451.377 376.446 427.049 363.993 428.042C356.758 428.629 350.081 436.527 345.758 443.062C338.086 461.252 340.59 482.132 352.346 498C356.205 498.071 356.846 491.477 356.522 487.149C356.105 481.623 364.199 486.186 371.463 488.153Z" fill="#1E9E6A" stroke="#232323" stroke-width="1.41"/>
<g opacity="0.65">
<path fill-rule="evenodd" clip-rule="evenodd" d="M404.666 510.936C435.295 506.345 456.877 481.023 452.869 454.379C448.861 427.735 420.781 409.858 390.151 414.449C359.521 419.041 337.94 444.362 341.948 471.006C345.956 497.65 374.036 515.528 404.666 510.936Z" stroke="white" stroke-width="0.71"/>
<path fill-rule="evenodd" clip-rule="evenodd" d="M401.49 495.385C432.234 491.578 455.335 473.822 453.086 455.726C450.838 437.629 424.092 426.044 393.348 429.851C362.604 433.657 339.503 451.413 341.752 469.51C344 487.606 370.746 499.191 401.49 495.385Z" stroke="white" stroke-width="0.71"/>
<path fill-rule="evenodd" clip-rule="evenodd" d="M399.344 478.267C430.079 474.592 454.133 464.446 453.072 455.603C452.012 446.761 426.237 442.572 395.503 446.247C364.768 449.922 340.714 460.069 341.774 468.911C342.835 477.753 368.61 481.942 399.344 478.267Z" stroke="white" stroke-width="0.71"/>
<path d="M341.758 468.87L453.075 455.669" stroke="white" stroke-width="0.71"/>
<path fill-rule="evenodd" clip-rule="evenodd" d="M403.754 520.347C429.448 517.429 447.442 490.178 443.943 459.48C440.445 428.782 416.78 406.262 391.086 409.18C365.392 412.098 347.398 439.349 350.897 470.047C354.395 500.745 378.06 523.265 403.754 520.347Z" stroke="white" stroke-width="0.71"/>
<path fill-rule="evenodd" clip-rule="evenodd" d="M403.833 520.368C421.218 518.394 432.475 491.9 428.976 461.192C425.476 430.484 408.546 407.191 391.16 409.166C373.775 411.14 362.518 437.634 366.017 468.341C369.517 499.049 386.447 522.342 403.833 520.368Z" stroke="white" stroke-width="0.71"/>
<path fill-rule="evenodd" clip-rule="evenodd" d="M404.149 520.32C412.641 519.355 416.691 493.698 413.194 463.013C409.698 432.328 399.978 408.235 391.486 409.199C382.993 410.164 378.943 435.821 382.44 466.506C385.937 497.191 395.656 521.284 404.149 520.32Z" stroke="white" stroke-width="0.71"/>
<path d="M391.481 409.205L404.146 520.326" stroke="white" stroke-width="0.71"/>
</g>
<path fill-rule="evenodd" clip-rule="evenodd" d="M397.422 520.742C428.382 520.742 453.481 495.688 453.481 464.783C453.481 433.877 428.382 408.823 397.422 408.823C366.462 408.823 341.364 433.877 341.364 464.783C341.364 495.688 366.462 520.742 397.422 520.742Z" stroke="#232323" stroke-width="1.41"/>
<path d="M413.558 489.797C413.558 489.797 419.44 490.972 420.028 492.763C420.616 494.553 405.811 499.333 406.175 494.671C406.54 490.009 403.993 489.592 413.558 489.797Z" fill="#1E9E6A" stroke="#232323" stroke-width="1.41"/>
<path d="M431.163 429.105C431.163 429.105 421.645 429.404 419.657 425.804C417.669 422.205 425.91 425.575 425.881 422.692C425.851 419.809 436.687 429.492 431.163 429.105Z" fill="#1E9E6A" stroke="#232323" stroke-width="1.41"/>
<path opacity="0.28" d="M453.116 458.459C451.264 442.081 442.267 427.354 428.53 418.21C414.793 409.067 397.715 406.44 381.857 411.031C383.104 410.925 384.352 410.855 385.622 410.831C413.689 410.422 437.732 430.798 441.883 458.511C446.033 486.223 429.011 512.728 402.051 520.531C402.64 520.484 403.187 520.443 403.757 520.378C418.528 518.701 432.027 511.235 441.283 499.623C450.54 488.011 454.796 473.203 453.116 458.459Z" fill="#232323" stroke="#232323" stroke-width="1.41"/>
<path d="M470.627 534.771C470.627 534.771 505.586 540.273 517.033 568.986C517.033 568.986 548.309 573.561 562.268 602.416" stroke="#232323" stroke-width="1.41" stroke-linecap="round"/>
<path d="M602.668 446.691C602.668 446.691 618.674 450.02 632.403 464.782" stroke="#232323" stroke-width="1.41"/>
<path d="M512.834 500.055C512.834 500.055 519.628 482.375 511.069 465.922" stroke="#232323" stroke-width="1.41"/>
<path d="M462.857 439.703C462.857 439.703 469.039 437.261 463.639 429.903" stroke="#232323" stroke-width="1.41" stroke-linecap="round"/>
<path d="M558.997 605.334C547.233 586.785 521.55 577.9 515.062 575.904C501.698 625.816 505.651 683.766 506.351 695.657C506.542 697.801 506.29 699.962 505.609 702.004C509.103 703.959 512.828 705.468 516.698 706.496C531.55 680.613 552.297 627.888 558.062 607.26C558.258 606.568 558.574 605.916 558.997 605.334Z" fill="#F97450" stroke="#232323" stroke-width="1.41"/>
<path d="M505.598 702.004C501.78 712.38 485.01 703.878 485.01 703.878C485.01 703.878 498.569 714.999 505.768 720.801C508.574 719.233 512.38 713.983 516.68 706.496C512.811 705.468 509.085 703.959 505.592 702.004L505.598 702.004Z" fill="#7F0E0E" stroke="#232323" stroke-width="1.41"/>
<path d="M401.987 520.608C401.987 520.608 406.105 523.649 407.028 527.619C406.481 523.144 405.852 520.103 405.852 520.103L401.987 520.608Z" fill="#232323" stroke="#232323" stroke-width="1.41" stroke-linecap="round"/>
<path opacity="0.61" d="M493.116 330.279C491.68 337.778 491.086 347.549 492.822 359.639" stroke="white" stroke-width="4.24"/>
<path opacity="0.61" d="M500.386 311.366C500.386 311.366 498.227 314.126 496.062 319.751" stroke="white" stroke-width="4.24"/>
<path d="M622.796 359.651H641.349C650.29 359.651 657.537 366.886 657.537 375.811C657.539 380.097 655.834 384.209 652.798 387.241C649.762 390.273 645.644 391.976 641.349 391.976H622.796V359.68L622.796 359.651Z" fill="#232323" stroke="#232323" stroke-width="1.41"/>
<path d="M623.456 391.97C632.397 391.97 639.644 384.735 639.644 375.811C639.644 366.886 632.397 359.651 623.456 359.651C614.516 359.651 607.268 366.886 607.268 375.811C607.268 384.735 614.516 391.97 623.456 391.97Z" fill="white" stroke="#232323" stroke-width="1.41"/>
<path d="M299.847 559.879H281.294C272.353 559.879 265.106 552.644 265.106 543.719C265.106 534.795 272.353 527.56 281.294 527.56H299.847V559.855V559.879Z" fill="#232323" stroke="#232323" stroke-width="1.41"/>
<path d="M299.187 559.873C308.128 559.873 315.375 552.638 315.375 543.714C315.375 534.789 308.128 527.554 299.187 527.554C290.247 527.554 282.999 534.789 282.999 543.714C282.999 552.638 290.247 559.873 299.187 559.873Z" fill="white" stroke="#232323" stroke-width="1.41"/>
<path d="M597.51 578.153C589.157 588.669 579.21 599.063 568.78 605.34" stroke="#232323" stroke-width="1.41" stroke-linecap="round"/>
<path d="M602.98 570.959C601.95 572.363 600.891 573.784 599.803 575.205" stroke="#232323" stroke-width="1.41" stroke-linecap="round"/>
<path d="M620.797 542.962C620.797 542.962 615.968 552.046 608.156 563.584" stroke="#232323" stroke-width="1.41" stroke-linecap="round"/>
<path d="M422.316 412.698L426.899 410.755" stroke="#232323" stroke-width="1.41" stroke-linecap="round"/>
<path d="M434.857 407.378L478.604 388.829" stroke="#232323" stroke-width="1.41" stroke-linecap="round" stroke-dasharray="14.69"/>
<path d="M482.58 387.143L487.168 385.194" stroke="#232323" stroke-width="1.41" stroke-linecap="round"/>
<path d="M453.545 552.451C453.417 554.221 453.395 555.998 453.481 557.771" stroke="#232323" stroke-width="1.41" stroke-linecap="round"/>
<path d="M473.398 520.102C465.887 524.856 460 531.775 456.516 539.944C455.679 541.952 455.008 544.026 454.51 546.144" stroke="#232323" stroke-width="1.41" stroke-linecap="round"/>
<path d="M329.322 466.785C329.322 466.785 310.158 466.961 305.934 472.269C301.711 477.578 339.081 475.704 339.081 475.704" stroke="#232323" stroke-width="1.41" stroke-linecap="round"/>
<path d="M628.868 633.032H647.832V651.963H628.868V633.032Z" fill="white"/>
<path d="M456.463 487.513C456.463 487.513 470.91 485.164 473.398 489.756C475.886 494.348 446.41 498.042 446.41 498.042" stroke="#232323" stroke-width="1.41" stroke-linecap="round"/>
<path fill-rule="evenodd" clip-rule="evenodd" d="M620.797 624.976H639.762V643.907H620.797V624.976Z" stroke="#232323" stroke-width="1.41" stroke-linecap="round"/>
</svg>
    